<svg width="14" height="10" viewBox="0 0 14 10" fill="none" xmlns="http://www.w3.org/2000/svg">
<path fill-rule="evenodd" clip-rule="evenodd" d="M10.25 0C10.3881 0 10.5 0.111929 10.5 0.25V2.46875L13.6274 0.709568C13.7941 0.615827 14 0.736255 14 0.927462V9.07254C14 9.26374 13.7941 9.38417 13.6274 9.29043L10.5 7.53125V9.75C10.5 9.88807 10.3881 10 10.25 10H0.25C0.111929 10 0 9.88807 0 9.75V0.25C0 0.111929 0.111929 0 0.25 0H10.25ZM9.87257 3.96903L13 2.20985V7.79015L9.87257 6.03097C9.70591 5.93723 9.5 6.05766 9.5 6.24886V9H1V1H9.5V3.75114C9.5 3.94234 9.70591 4.06277 9.87257 3.96903Z" fill="currentColor"/>
</svg>
