<svg width="12" height="11" viewBox="0 0 12 11" fill="none" xmlns="http://www.w3.org/2000/svg">
<path fill-rule="evenodd" clip-rule="evenodd" d="M8.25 7H10C10.5523 7 11 6.55228 11 6V2C11 1.44772 10.5523 1 10 1H2C1.44772 1 1 1.44772 1 2V6C1 6.55228 1.44772 7 2 7H5.33853L8.25 9.22642V7ZM9.25 10.7441C9.25 10.9512 9.01264 11.0685 8.84814 10.9427L5 8H2C0.89543 8 0 7.10457 0 6V2C0 0.895431 0.895431 0 2 0H10C11.1046 0 12 0.895431 12 2V6C12 7.10457 11.1046 8 10 8H9.25V10.7441Z" fill="currentColor"/>
</svg>
