<svg width="11" height="14" viewBox="0 0 11 14" fill="none" xmlns="http://www.w3.org/2000/svg">
<path d="M3.25 6H2.75C2.61193 6 2.5 6.11193 2.5 6.25V10.75C2.5 10.8881 2.61193 11 2.75 11H3.25C3.38807 11 3.5 10.8881 3.5 10.75V6.25C3.5 6.11193 3.38807 6 3.25 6Z" fill="currentColor"/>
<path d="M7.75 8H8.25C8.38807 8 8.5 8.11193 8.5 8.25V10.75C8.5 10.8881 8.38807 11 8.25 11H7.75C7.61193 11 7.5 10.8881 7.5 10.75V8.25C7.5 8.11193 7.61193 8 7.75 8Z" fill="currentColor"/>
<path d="M5.25 9H5.75C5.88807 9 6 9.11193 6 9.25V10.75C6 10.8881 5.88807 11 5.75 11H5.25C5.11193 11 5 10.8881 5 10.75V9.25C5 9.11193 5.11193 9 5.25 9Z" fill="currentColor"/>
<path fill-rule="evenodd" clip-rule="evenodd" d="M4 0C3.17157 0 2.5 0.671573 2.5 1.5H0.25C0.111929 1.5 0 1.61193 0 1.75V13.75C0 13.8881 0.111929 14 0.25 14H10.75C10.8881 14 11 13.8881 11 13.75V1.75C11 1.61193 10.8881 1.5 10.75 1.5H8.5C8.5 0.671573 7.82843 0 7 0H4ZM7 1H4C3.72386 1 3.5 1.22386 3.5 1.5V3H7.5V1.5C7.5 1.22386 7.27614 1 7 1ZM1 2.5H2.5V3.75C2.5 3.88807 2.61193 4 2.75 4H8.25C8.38807 4 8.5 3.88807 8.5 3.75V2.5H10V13H1V2.5Z" fill="currentColor"/>
</svg>
